<?xml version="1.0" standalone="no"?>
<!DOCTYPE svg PUBLIC "-//W3C//DTD SVG 20010904//EN"
 "http://www.w3.org/TR/2001/REC-SVG-20010904/DTD/svg10.dtd">
<svg version="1.0" xmlns="http://www.w3.org/2000/svg"
 width="800.000000pt" height="800.000000pt" viewBox="0 0 800.000000 800.000000"
 preserveAspectRatio="xMidYMid meet">
<metadata>
Created by potrace 1.11, written by Peter Selinger 2001-2013
</metadata>
<g transform="translate(0.000000,800.000000) scale(0.100000,-0.100000)"
fill="#000000" stroke="none">
<path d="M0 4000 l0 -4000 4000 0 4000 0 0 4000 0 4000 -4000 0 -4000 0 0
-4000z m3860 3135 c791 -129 1225 -990 859 -1705 -70 -137 -130 -212 -339
-422 -203 -205 -220 -215 -293 -185 -54 23 -69 54 -78 165 -11 116 -22 177
-56 296 -16 55 -23 100 -19 119 4 19 36 61 91 118 154 160 208 278 207 454 0
148 -43 264 -136 372 -46 53 -159 128 -233 155 -81 30 -244 36 -333 13 -137
-35 -159 -53 -516 -409 -353 -354 -374 -379 -409 -512 -25 -92 -21 -223 9
-319 37 -116 88 -187 219 -301 46 -39 47 -41 47 -100 0 -111 -19 -145 -159
-286 -126 -127 -127 -128 -173 -128 -39 0 -55 7 -106 45 -445 327 -596 945
-356 1451 73 154 124 215 468 563 397 400 475 463 676 544 203 81 418 106 630
72z m-598 -1304 c68 -43 191 -164 259 -254 79 -105 163 -277 194 -399 86 -340
32 -666 -158 -956 -61 -94 -111 -148 -406 -443 -347 -347 -415 -405 -565 -481
-175 -88 -330 -123 -546 -122 -127 0 -172 5 -250 24 -438 107 -767 427 -880
856 -66 255 -38 552 75 791 74 157 126 225 345 445 226 228 241 238 313 203
48 -23 65 -63 77 -189 6 -61 26 -168 44 -240 25 -96 31 -137 25 -159 -5 -16
-50 -73 -103 -127 -138 -142 -195 -269 -196 -431 0 -81 30 -203 67 -272 65
-119 199 -226 336 -268 56 -18 86 -20 180 -17 219 9 250 29 648 427 309 308
318 318 357 401 66 140 78 253 42 394 -30 118 -62 170 -174 279 l-101 99 1 66
c1 96 29 147 144 266 52 54 109 107 125 117 44 28 93 24 147 -10z m1008 -2166
c14 -8 296 -285 627 -617 626 -628 623 -624 623 -703 0 -79 3 -75 -618 -698
-329 -329 -613 -606 -632 -616 -57 -29 -88 -33 -144 -17 -45 13 -67 31 -183
148 -154 157 -170 189 -142 293 9 34 76 105 435 465 l424 425 -406 405 c-223
223 -417 423 -432 445 -31 49 -36 142 -10 190 21 38 235 258 267 275 61 32
136 34 191 5z m1635 -15 c63 -45 1203 -1192 1214 -1223 15 -39 14 -121 -3
-160 -16 -39 -1190 -1213 -1239 -1240 -43 -23 -120 -22 -172 3 -53 25 -260
236 -280 284 -19 44 -19 117 -1 159 7 19 186 204 430 446 229 228 416 420 416
425 0 6 -189 200 -419 431 -231 231 -425 433 -430 448 -14 36 -14 118 0 153
10 29 211 239 263 276 62 45 154 44 221 -2z"/>
</g>
</svg>
